<?xml version="1.0" encoding="iso-8859-1"?>
<!-- Generator: Adobe Illustrator 19.0.0, SVG Export Plug-In . SVG Version: 6.00 Build 0)  -->
<svg version="1.1" id="Layer_1" xmlns="http://www.w3.org/2000/svg" xmlns:xlink="http://www.w3.org/1999/xlink" x="0px" y="0px"
	 viewBox="0 0 512 512" style="enable-background:new 0 0 512 512;" xml:space="preserve">
<circle cx="95.648" cy="242.497" r="8.44"/>
<circle cx="61.89" cy="276.255" r="8.44"/>
<path style="fill:#F63E31;" d="M416.352,256c-52.825,0-95.648-42.823-95.648-95.648C320.703,71.791,248.912,0,160.352,0
	S0,71.791,0,160.352v334.769h512V351.648C512,298.823,469.177,256,416.352,256z"/>
<polygon style="fill:#FFEEA4;" points="43.323,374.154 43.323,512 106.821,512 118.074,443.077 106.821,374.154 "/>
<polygon style="fill:#FFD102;" points="106.821,374.154 106.821,512 170.318,512 181.571,443.077 170.318,374.154 "/>
<polygon style="fill:#FFEEA4;" points="170.318,374.154 170.318,512 233.816,512 245.069,443.077 233.816,374.154 "/>
<polygon style="fill:#FFD102;" points="233.816,374.154 233.816,512 297.313,512 308.566,443.077 297.313,374.154 "/>
<polygon style="fill:#FFEEA4;" points="297.313,374.154 297.313,512 360.811,512 372.064,443.077 360.811,374.154 "/>
<polygon style="fill:#FFD102;" points="360.811,374.154 360.811,512 424.309,512 435.561,443.077 424.309,374.154 "/>
<rect x="424.307" y="374.154" style="fill:#FFEEA4;" width="63.499" height="137.846"/>
<g>
	<circle style="fill:#E60048;" cx="95.648" cy="242.497" r="8.44"/>
	<circle style="fill:#E60048;" cx="61.89" cy="276.255" r="8.44"/>
</g>
<g>
	<rect x="91.946" y="374.154" style="fill:#991D06;" width="29.74" height="68.923"/>
	<rect x="155.445" y="374.154" style="fill:#991D06;" width="29.74" height="68.923"/>
	<rect x="218.945" y="374.154" style="fill:#991D06;" width="29.74" height="68.923"/>
	<rect x="345.943" y="374.154" style="fill:#991D06;" width="29.74" height="68.923"/>
	<rect x="409.442" y="374.154" style="fill:#991D06;" width="29.74" height="68.923"/>
</g>
<g>
</g>
<g>
</g>
<g>
</g>
<g>
</g>
<g>
</g>
<g>
</g>
<g>
</g>
<g>
</g>
<g>
</g>
<g>
</g>
<g>
</g>
<g>
</g>
<g>
</g>
<g>
</g>
<g>
</g>
</svg>
