<?xml version="1.0" encoding="iso-8859-1"?>
<!-- Generator: Adobe Illustrator 19.0.0, SVG Export Plug-In . SVG Version: 6.00 Build 0)  -->
<svg version="1.1" id="Layer_1" xmlns="http://www.w3.org/2000/svg" xmlns:xlink="http://www.w3.org/1999/xlink" x="0px" y="0px"
	 viewBox="0 0 511.999 511.999" style="enable-background:new 0 0 511.999 511.999;" xml:space="preserve">
<g>
	<path style="fill:#000001;" d="M162.616,114.153c1.412,0.689,2.906,1.016,4.379,1.016c3.701,0,7.262-2.065,8.994-5.616
		c8.133-16.664,18.39-32.465,30.485-46.965c3.539-4.241,2.969-10.547-1.273-14.084c-4.24-3.537-10.545-2.968-14.083,1.273
		c-13.126,15.735-24.263,32.896-33.101,51.004C155.593,105.744,157.653,111.731,162.616,114.153z"/>
	<path style="fill:#000001;" d="M152.65,141.861c1.047,0.347,2.107,0.512,3.152,0.512c4.191,0,8.096-2.657,9.488-6.853l0.23-0.67
		c1.766-5.233-1.047-10.906-6.279-12.672c-5.238-1.769-10.906,1.046-12.671,6.278l-0.26,0.763
		C144.57,134.462,147.408,140.121,152.65,141.861z"/>
	<path style="fill:#000001;" d="M186.215,400.831L186.047,401c-3.893,3.917-3.875,10.248,0.041,14.141
		c1.951,1.94,4.502,2.909,7.051,2.909c2.568,0,5.139-0.984,7.092-2.949l0.168-0.169c3.895-3.917,3.875-10.249-0.041-14.141
		C196.441,396.896,190.109,396.914,186.215,400.831z"/>
	<path style="fill:#000001;" d="M165.757,421.296l-36.087,36.085c-3.906,3.905-3.906,10.237-0.002,14.141
		c1.953,1.953,4.512,2.929,7.072,2.929c2.559,0,5.117-0.977,7.07-2.929l36.087-36.085c3.906-3.905,3.906-10.237,0.002-14.141
		C175.995,417.393,169.663,417.393,165.757,421.296z"/>
	<path style="fill:#000001;" d="M502.449,230.94c-2.68-4.642-5.855-8.906-9.43-12.753c14.462-29.991,20.845-61.756,18.479-92.317
		c-2.637-34.06-15.993-64.033-38.629-86.683c-0.01-0.01-0.018-0.022-0.029-0.033c-0.012-0.011-0.023-0.021-0.035-0.032
		C443.693,10.032,402.761-3.576,357.517,0.808c-44.525,4.316-87.985,25.629-122.37,60.015
		c-34.386,34.387-55.701,77.845-60.018,122.37c-0.324,3.344-0.537,6.66-0.666,9.954c-1.924,23.92-8.027,69.335-27.278,109.998
		c-0.25,0.431-0.461,0.884-0.646,1.348c-8.037,16.678-18.31,32.504-31.452,45.646c-0.002,0.002-0.004,0.003-0.006,0.005
		L2.929,462.299c-3.906,3.905-3.906,10.237,0,14.141l32.628,32.628c1.875,1.875,4.418,2.929,7.07,2.929s5.195-1.054,7.072-2.929
		l112.129-112.13c0.01-0.01,0.02-0.018,0.029-0.028c13.11-13.11,28.892-23.366,45.523-31.395c0.523-0.199,1.027-0.441,1.51-0.724
		c40.578-19.201,85.88-25.315,109.828-27.25c24.771-0.896,49.926-7.325,73.942-18.93c6.621,6.111,14.351,10.913,22.739,14.151
		c0.156,0.071,0.307,0.149,0.467,0.212c0.33,0.13,0.664,0.238,0.998,0.331c7.629,2.756,15.769,4.237,24.101,4.237
		c12.408,0,24.673-3.295,35.474-9.53c16.438-9.491,28.196-24.814,33.11-43.149C514.459,266.529,511.939,247.379,502.449,230.94z
		 M474.116,247.297c-4.172-7.227-5.916-15.392-5.156-23.459c6.553,4.306,12.135,10.116,16.169,17.102
		c4.049,7.014,6.316,14.714,6.766,22.571C484.512,260.138,478.297,254.537,474.116,247.297z M203.068,345.538
		c-8.549-2.765-16.349-7.521-22.718-13.89c-6.371-6.371-11.129-14.171-13.892-22.72c8.209-17.953,14.089-36.524,18.294-53.87
		c6.59,16.269,16.224,30.959,28.726,43.459c12.465,12.465,27.151,22.11,43.514,28.711
		C239.629,331.437,221.04,337.322,203.068,345.538z M155.022,375.937l-18.964-18.963c7.043-8.021,13.249-16.711,18.718-25.798
		c3.197,5.294,7.025,10.209,11.432,14.614c4.404,4.405,9.32,8.233,14.612,11.43C171.733,362.689,163.042,368.894,155.022,375.937z
		 M216.841,117.589l14.419,14.418l-23.384,23.383c-0.004,0.003-0.008,0.006-0.01,0.009c-0.004,0.003-0.006,0.007-0.01,0.01
		l-9.484,9.485C202.045,148.897,208.221,132.908,216.841,117.589z M242.396,82.218l19.325,19.325l-16.319,16.321l-17.573-17.572
		C232.254,94.084,237.117,88.045,242.396,82.218z M274.598,53.493l17.587,17.587l-16.321,16.321l-19.327-19.328
		C262.333,62.817,268.364,57.948,274.598,53.493z M406.566,23.992l-12.729,12.731c-0.004,0.002-0.006,0.004-0.008,0.007
		c-0.004,0.002-0.006,0.005-0.008,0.008l-23.384,23.385l-19.505-19.505l20.581-20.581C383.741,19.834,395.494,21.177,406.566,23.992
		z M451.302,46.55l-16.755,16.755l-19.505-19.506l12.385-12.384C436.023,35.44,444.027,40.495,451.302,46.55z M480.458,84.69
		l-12.266,12.264l-19.503-19.504l16.743-16.743C471.475,68.009,476.475,76.071,480.458,84.69z M466.393,200.17
		c-0.15-0.067-0.293-0.142-0.447-0.203c-0.334-0.132-0.67-0.242-1.008-0.337c-0.949-0.343-1.908-0.669-2.873-0.972l25.817-25.818
		c-2.471,10.843-6.1,21.721-10.924,32.44C473.586,203.293,470.053,201.582,466.393,200.17z M373.051,245.513l-12.568-12.567
		l16.321-16.32l7.238,7.239C379.131,230.439,375.438,237.779,373.051,245.513z M346.341,218.804L326.836,199.3l16.321-16.32
		l19.505,19.504L346.341,218.804z M235.029,291.108l16.739-16.739l19.505,19.504l-12.286,12.286
		C250.375,302.175,242.332,297.15,235.029,291.108z M336.791,54.759l19.505,19.504l-16.321,16.322L320.47,71.08L336.791,54.759z
		 M400.9,57.942l19.505,19.505l-16.319,16.321l-19.507-19.505L400.9,57.942z M434.547,91.59l19.505,19.505l-16.321,16.32
		l-19.505-19.504L434.547,91.59z M389.943,107.911l-16.321,16.321l-19.505-19.505l16.321-16.321L389.943,107.911z M262.725,196.117
		l16.321-16.322l19.505,19.504l-16.321,16.322L262.725,196.117z M268.089,229.764l-16.319,16.32l-19.505-19.503l16.319-16.321
		L268.089,229.764z M293.189,165.653l16.321-16.321l19.505,19.505l-16.321,16.32L293.189,165.653z M323.653,135.19l16.321-16.321
		l19.505,19.505l-16.321,16.321L323.653,135.19z M325.833,104.727l-16.321,16.32l-19.505-19.504l16.321-16.321L325.833,104.727z
		 M295.369,135.191l-16.319,16.321l-19.505-19.505l16.319-16.321L295.369,135.191z M264.907,165.653l-16.321,16.322l-19.507-19.505
		l16.323-16.322L264.907,165.653z M214.936,176.613l19.507,19.505l-36.097,36.096c-2.85-11.219-4.154-23.001-3.965-35.046
		L214.936,176.613z M218.122,240.722l19.505,19.503l-16.753,16.751c-6.104-7.342-11.127-15.366-15.106-23.901L218.122,240.722z
		 M285.416,279.73l-19.505-19.504l16.319-16.32l19.505,19.504L285.416,279.73z M296.373,229.764l16.321-16.322l19.505,19.504
		l-16.321,16.322L296.373,229.764z M357.3,168.837l16.321-16.321l19.505,19.504l-16.321,16.321L357.3,168.837z M387.763,138.373
		l16.321-16.321l19.503,19.504l-16.319,16.321L387.763,138.373z M437.73,155.699l19.505,19.505l-16.319,16.321l-19.505-19.505
		L437.73,155.699z M491.804,140.635l-20.427,20.427l-19.505-19.505l35.964-35.964C490.654,116.765,491.976,128.545,491.804,140.635z
		 M306.328,56.938l-14.452-14.453c15.112-8.526,31.079-14.77,47.393-18.486L306.328,56.938z M279.921,313.509l12.563-12.563
		c0.002-0.002,0.004-0.003,0.006-0.004c0-0.001,0.002-0.003,0.004-0.004l23.386-23.386l19.505,19.504l-20.437,20.435
		C302.859,317.665,291.088,316.329,279.921,313.509z M349.525,282.915l-19.505-19.504l16.321-16.322l19.505,19.504L349.525,282.915z
		 M405.375,204.93c-2.529,1.461-4.92,3.069-7.199,4.783l-7.228-7.229l16.321-16.321l12.475,12.475
		C414.758,200.194,409.934,202.297,405.375,204.93z M42.627,487.856L24.142,469.37l98.014-98.017l18.487,18.487L42.627,487.856z
		 M347.146,313.577l9.426-9.425c0.008-0.008,0.018-0.015,0.025-0.023c0.008-0.008,0.014-0.017,0.021-0.025l16.464-16.462
		c1.531,4.905,3.602,9.72,6.275,14.351c0.002,0.004,0.004,0.009,0.006,0.014c0.115,0.199,0.23,0.397,0.348,0.595
		C368.952,307.452,358.031,311.096,347.146,313.577z M401.66,299.125c-0.123-0.149-0.246-0.299-0.369-0.45
		c-0.264-0.323-0.525-0.648-0.781-0.979c-0.377-0.488-0.748-0.981-1.107-1.483c-0.129-0.181-0.254-0.367-0.383-0.551
		c-0.295-0.425-0.586-0.854-0.869-1.288c-0.123-0.188-0.246-0.375-0.365-0.564c-0.35-0.551-0.691-1.108-1.02-1.671
		c-0.027-0.047-0.057-0.092-0.084-0.139c-4.115-7.13-6.299-14.85-6.734-22.558c7.371,3.376,13.575,8.972,17.749,16.2
		c4.172,7.227,5.916,15.392,5.156,23.46C408.679,306.36,404.898,303.006,401.66,299.125z M466.438,310.694
		c-7.764,4.482-16.571,6.851-25.474,6.851c-3.061,0-6.082-0.282-9.039-0.816c2.719-13.973,0.367-28.478-6.91-41.083
		c-7.273-12.599-18.651-21.883-32.104-26.517c3.947-10.949,11.617-20.617,22.462-26.878c7.764-4.483,16.573-6.852,25.476-6.852
		c3.059,0,6.082,0.282,9.039,0.816c-2.721,13.973-0.369,28.478,6.908,41.084c7.279,12.607,18.665,21.894,32.126,26.524
		C484.848,295.157,476.991,304.601,466.438,310.694z"/>
</g>
<g>
</g>
<g>
</g>
<g>
</g>
<g>
</g>
<g>
</g>
<g>
</g>
<g>
</g>
<g>
</g>
<g>
</g>
<g>
</g>
<g>
</g>
<g>
</g>
<g>
</g>
<g>
</g>
<g>
</g>
</svg>
